
<svg xmlns="http://www.w3.org/2000/svg" xmlns:xlink="http://www.w3.org/1999/xlink" viewBox="0 0 26 24" width="26" height="24" fill="none">
  <svg xmlns="http://www.w3.org/2000/svg" viewBox="0 0 512 512" width="24" height="24" fill="#3164f4" x="1" y="0" opacity="100%">
    <path d="M466.5 83.7l-192-80a48.15 48.15 0 0 0-36.9 0l-192 80C27.7 91.1 16 108.6 16 128c0 198.5 114.5 335.7 221.5 380.3 11.8 4.9 25.1 4.9 36.9 0C360.1 472.6 496 349.3 496 128c0-19.4-11.7-36.9-29.5-44.3zM256.1 446.3l-.1-381 175.9 73.3c-3.3 151.4-82.1 261.1-175.8 307.7z"></path>
  </svg>
  <defs>
    <filter id="filter_dshadow_0_0_0_00000014" color-interpolation-filters="sRGB" filterUnits="userSpaceOnUse">
      <feFlood flood-opacity="0" result="bg-fix"></feFlood>
      <feColorMatrix in="SourceAlpha" type="matrix" values="0 0 0 0 0 0 0 0 0 0 0 0 0 0 0 0 0 0 127 0" result="alpha"></feColorMatrix>
      <feOffset dx="0" dy="0"></feOffset>
      <feGaussianBlur stdDeviation="0"></feGaussianBlur>
      <feComposite in2="alpha" operator="out"></feComposite>
      <feColorMatrix type="matrix" values="0 0 0 0 0 0 0 0 0 0 0 0 0 0 0 0 0 0 0.08 0"></feColorMatrix>
      <feBlend mode="normal" in2="bg-fix" result="bg-fix-filter_dshadow_0_0_0_00000014"></feBlend>
      <feBlend in="SourceGraphic" in2="bg-fix-filter_dshadow_0_0_0_00000014" result="shape"></feBlend>
    </filter>
  </defs>
</svg>